<svg xmlns="http://www.w3.org/2000/svg" xmlns:xlink="http://www.w3.org/1999/xlink" width="1200" zoomAndPan="magnify" viewBox="0 0 2631 1859.999923" height="1100" preserveAspectRatio="xMidYMid meet" version="1.0"><defs><clipPath id="a300783549"><path d="M 1326 260.378906 L 2631 260.378906 L 2631 1053 L 1326 1053 Z M 1326 260.378906 " clip-rule="nonzero"/></clipPath><clipPath id="c27f0f550b"><path d="M 0 260.378906 L 1386 260.378906 L 1386 1053 L 0 1053 Z M 0 260.378906 " clip-rule="nonzero"/></clipPath><clipPath id="f37ba588db"><path d="M 0 0 L 2631 0 L 2631 622.945312 L 0 622.945312 Z M 0 0 " clip-rule="nonzero"/></clipPath></defs><rect x="-263.1" width="3157.2" fill="#ffffff" y="-185.999992" height="2231.999908" fill-opacity="1"/><rect x="-263.1" width="3157.2" fill="#ffd100" y="-185.999992" height="2231.999908" fill-opacity="1"/><g clip-path="url(#a300783549)"><path fill="#6d3415" d="M 1326.855469 1049.027344 L 1326.855469 260.003906 L 3042.023438 260.003906 L 3042.023438 1000.601562 C 3019.96875 985.582031 3000.445312 969.535156 2984.398438 952.734375 C 2745.445312 701.675781 2319.914062 765.214844 2042.953125 898.488281 C 1834.601562 998.816406 1571.25 1069.300781 1326.855469 1049.027344 Z M 1326.855469 1049.027344 " fill-opacity="1" fill-rule="evenodd"/></g><g clip-path="url(#c27f0f550b)"><path fill="#6d3415" d="M 1385.851562 1049.027344 L 1385.851562 260.003906 L -329.320312 260.003906 L -329.320312 1000.601562 C -307.261719 985.582031 -287.742188 969.535156 -271.691406 952.734375 C -32.742188 701.675781 392.789062 765.214844 669.75 898.488281 C 878.105469 998.816406 1141.457031 1069.300781 1385.851562 1049.027344 Z M 1385.851562 1049.027344 " fill-opacity="1" fill-rule="evenodd"/></g><g clip-path="url(#f37ba588db)"><path fill="#72442b" d="M 3956.40625 587.46875 C 3956.40625 607.203125 3940.132812 623.125 3920.40625 622.558594 C 3601.082031 613.40625 3589.089844 482.667969 3246.628906 482.667969 C 2891.738281 482.667969 2891.738281 623.0625 2536.851562 623.0625 C 2181.960938 623.0625 2181.960938 482.667969 1827.074219 482.667969 C 1472.191406 482.667969 1472.191406 623.0625 1117.3125 623.0625 C 762.433594 623.0625 762.433594 482.667969 407.5625 482.667969 C 65.101562 482.667969 53.113281 613.40625 -266.203125 622.558594 C -285.929688 623.125 -302.203125 607.203125 -302.203125 587.46875 L -302.203125 -67.207031 C -302.203125 -86.589844 -286.488281 -102.304688 -267.101562 -102.304688 L 3921.308594 -102.304688 C 3940.691406 -102.304688 3956.40625 -86.589844 3956.40625 -67.207031 Z M 3956.40625 587.46875 " fill-opacity="1" fill-rule="nonzero"/></g><path fill="#643e2a" d="M 1130.371094 422.65625 L 1130.371094 -366.367188 L 2845.539062 -366.367188 L 2845.539062 374.226562 C 2823.484375 359.210938 2803.960938 343.160156 2787.914062 326.363281 C 2548.960938 75.304688 2123.433594 138.84375 1846.472656 272.113281 C 1638.117188 372.445312 1374.765625 442.929688 1130.371094 422.65625 Z M 1130.371094 422.65625 " fill-opacity="1" fill-rule="evenodd"/><path fill="#643e2a" d="M 1189.367188 422.65625 L 1189.367188 -366.367188 L -525.804688 -366.367188 L -525.804688 374.226562 C -503.746094 359.210938 -484.226562 343.160156 -468.175781 326.363281 C -229.226562 75.304688 196.304688 138.84375 473.265625 272.113281 C 681.621094 372.445312 944.972656 442.929688 1189.367188 422.65625 Z M 1189.367188 422.65625 " fill-opacity="1" fill-rule="evenodd"/></svg>